<svg xmlns="http://www.w3.org/2000/svg" viewBox="0 0 48 60" x="0px" y="0px"><title>24-cake-cheese-piece</title><g data-name="Layer 25"><path d="M47.96,30.8a1.017,1.017,0,0,0-.009-.111A18.153,18.153,0,0,0,34,18.316V9a2.982,2.982,0,0,0-1.141-2.336A4.15,4.15,0,0,0,34,4C34,1.871,31.808.338,31.558.17a1,1,0,0,0-1.116,0C30.192.338,28,1.871,28,4a4.15,4.15,0,0,0,1.141,2.664A2.982,2.982,0,0,0,28,9v9.227a17.808,17.808,0,0,0-4.721,1.417L.611,30.078h0l-.028.013a1,1,0,0,0-.284.2c-.015.015-.023.035-.037.051a.977.977,0,0,0-.165.245A1.133,1.133,0,0,0,.06,30.7a.983.983,0,0,0-.049.241C.01,30.963,0,30.98,0,31V47a1,1,0,0,0,1,1H47a1,1,0,0,0,1-1V31A.936.936,0,0,0,47.96,30.8ZM2,38H43a1,1,0,0,0,0-2H2V32H46v8H2ZM32,9v4.586l-2-2V9a1,1,0,0,1,2,0Zm0,7.414v2.172l-2-2V14.414Zm-2,3,2,2V24H30ZM31,2.29A2.764,2.764,0,0,1,32,4a2.748,2.748,0,0,1-1,1.71A2.764,2.764,0,0,1,30,4,2.748,2.748,0,0,1,31,2.29ZM24.115,21.46A15.919,15.919,0,0,1,28,20.245V25a1,1,0,0,0,1,1h4a1,1,0,0,0,1-1V20.347A16.12,16.12,0,0,1,45.562,30h-40ZM2,46V42H46v4Z"/><path d="M37.707,25.293a1,1,0,0,0-1.414,1.414l1,1a1,1,0,0,0,1.414-1.414Z"/><path d="M24.293,23.293l-1,1a1,1,0,1,0,1.414,1.414l1-1a1,1,0,0,0-1.414-1.414Z"/><path d="M20,26H19a1,1,0,0,0,0,2h1a1,1,0,0,0,0-2Z"/></g><text x="0" y="63" fill="#000000" font-size="5px" font-weight="bold" font-family="'Helvetica Neue', Helvetica, Arial-Unicode, Arial, Sans-serif">Created by KonKapp</text><text x="0" y="68" fill="#000000" font-size="5px" font-weight="bold" font-family="'Helvetica Neue', Helvetica, Arial-Unicode, Arial, Sans-serif">from the Noun Project</text></svg>