<svg xmlns="http://www.w3.org/2000/svg" viewBox="0 0 64 80" x="0px" y="0px"><title>Artboard 3</title><g data-name="Layer 4"><path d="M54.75,22H31.25A1.25,1.25,0,0,0,30,23.25v15.5A1.25,1.25,0,0,0,31.25,40h23.5A1.25,1.25,0,0,0,56,38.75V23.25A1.25,1.25,0,0,0,54.75,22ZM38,25H34.25A1.25,1.25,0,0,0,33,26.25V30a1,1,0,0,1-2,0V26.25A3.26,3.26,0,0,1,34.25,23H38a1,1,0,0,1,0,2Zm19.69-8H28.31A3.32,3.32,0,0,0,25,20.31V41.69A3.32,3.32,0,0,0,28.31,45H39v1H37a3,3,0,0,0,0,6H49a3,3,0,0,0,0-6H47V45H57.69A3.32,3.32,0,0,0,61,41.69V20.31A3.32,3.32,0,0,0,57.69,17ZM58,38.75A3.26,3.26,0,0,1,54.75,42H31.25A3.26,3.26,0,0,1,28,38.75V23.25A3.26,3.26,0,0,1,31.25,20h23.5A3.26,3.26,0,0,1,58,23.25ZM15,22a2,2,0,1,1-2-2A2,2,0,0,1,15,22Zm4.69-10H6.31A3.32,3.32,0,0,0,3,15.31V48.69A3.32,3.32,0,0,0,6.31,52H19.69A3.32,3.32,0,0,0,23,48.69V15.31A3.32,3.32,0,0,0,19.69,12ZM16,43H10a1,1,0,0,1,0-2h6a1,1,0,0,1,0,2Zm0-5H10a1,1,0,0,1,0-2h6a1,1,0,0,1,0,2Zm0-5H10a1,1,0,0,1,0-2h6a1,1,0,0,1,0,2Zm-3-7a4,4,0,1,1,4-4A4,4,0,0,1,13,26Z"/></g><text x="0" y="79" fill="#000000" font-size="5px" font-weight="bold" font-family="'Helvetica Neue', Helvetica, Arial-Unicode, Arial, Sans-serif">Created by ronin design</text><text x="0" y="84" fill="#000000" font-size="5px" font-weight="bold" font-family="'Helvetica Neue', Helvetica, Arial-Unicode, Arial, Sans-serif">from the Noun Project</text></svg>