<svg xmlns="http://www.w3.org/2000/svg" xmlns:xlink="http://www.w3.org/1999/xlink" version="1.1" x="0px" y="0px" viewBox="0 0 94.881 105.1875" enable-background="new 0 0 94.881 84.15" xml:space="preserve"><path fill="#000000" d="M0.729,74.34c0.331,4.703,7.921,4.58,12.456,4.506c0.483-0.008,0.926-0.015,1.314-0.015  c3.274-0.002,5.823,0.145,8.354,0.777c0.06,1.687,2.303,3.824,6.896,3.885c4.971,0.064,6.195-1.395,6.211-2.724  c0.025-1.947-1.552-4.07-6.747-4.094c-2.555-0.013-5.149,0.773-6.032,1.907c-2.654-0.674-5.294-0.828-8.682-0.826  c-0.394,0-0.843,0.007-1.332,0.015C9.285,77.836,2.06,77.953,1.802,74.265c-0.269-3.818,7.394-6.051,13.552-7.846  c1.633-0.476,3.174-0.925,4.551-1.388c0.281-0.096,0.432-0.4,0.338-0.682c-0.096-0.279-0.398-0.431-0.682-0.337  c-1.356,0.457-2.886,0.902-4.508,1.374C8.185,67.389,0.399,69.657,0.729,74.34z M23.784,78.448c0,0,0.051-0.038,0.141-0.104  c0.086-0.071,0.219-0.153,0.389-0.25c0.166-0.104,0.373-0.193,0.597-0.285c0.115-0.039,0.234-0.077,0.356-0.117  c0.12-0.046,0.25-0.063,0.376-0.095c0.253-0.071,0.518-0.071,0.763-0.097c0.246-0.009,0.476,0.013,0.672,0.021  c0.173,0.031,0.315,0.055,0.425,0.073c0.068-0.064,0.138-0.132,0.205-0.194c0.148-0.102,0.307-0.179,0.449-0.26  c0.14-0.085,0.304-0.106,0.438-0.148c0.138-0.026,0.263-0.078,0.373-0.071c0.109-0.001,0.205-0.004,0.283-0.005  c0.157-0.003,0.25,0.004,0.25,0.004l0.005,0.03c0,0-0.081,0.044-0.226,0.105c-0.073,0.027-0.161,0.064-0.263,0.104  c-0.107,0.033-0.2,0.102-0.312,0.159c-0.106,0.065-0.236,0.097-0.341,0.197c-0.111,0.086-0.238,0.162-0.351,0.26  c-0.104,0.108-0.212,0.219-0.321,0.334c-0.099,0.122-0.182,0.267-0.275,0.399c-0.103,0.127-0.151,0.293-0.227,0.439  c-0.065,0.151-0.153,0.289-0.194,0.447c-0.092,0.308-0.216,0.587-0.276,0.842c-0.071,0.256-0.13,0.467-0.172,0.616  c-0.048,0.149-0.076,0.234-0.076,0.234l-0.031-0.003c0,0-0.002-0.089-0.005-0.245c0.003-0.158,0.008-0.383,0.014-0.651  c0.008-0.271,0.086-0.581,0.146-0.917c0.02-0.172,0.109-0.333,0.165-0.506c0.068-0.169,0.113-0.353,0.229-0.507  c0.06-0.091,0.115-0.184,0.174-0.272c-0.045-0.01-0.088-0.019-0.139-0.028c-0.089-0.006-0.188-0.013-0.292-0.02  c-0.103-0.006-0.212-0.026-0.325-0.023c-0.226,0.008-0.468,0.001-0.709,0.035c-0.121,0.015-0.245,0.015-0.361,0.046  c-0.118,0.023-0.234,0.047-0.348,0.069c-0.218,0.068-0.435,0.11-0.607,0.179c-0.177,0.055-0.323,0.119-0.424,0.161  c-0.104,0.042-0.163,0.065-0.163,0.065L23.784,78.448z"/><polygon fill="#000000" points="23.693,73.547 23.692,70.891 74.761,47.665 92.609,47.924 94.485,49.661 45.953,76.551 "/><path fill="#000000" stroke="#4F6DB4" stroke-width="0.5" stroke-miterlimit="10" d="M85.364,24.602"/><path fill="#000000" d="M1.005,10.588C2.487,23.227,6.379,56.43,6.497,57.54c0.147,1.373,0.024,4.103,1.949,4.269  c1.924,0.165,4.746,0.383,4.746,0.383l18.572-7.304c0,0.585,0.001,1.179,0.001,1.666c0,1.512,0.017,2.148-1.647,2.961l-4.72,1.969  v0.975l8.955,0.835l13.364-5.973v-1.06l-8.731-0.44l-0.339,0.142c-1.306,0.542-1.129-0.345-1.13-2.379c0-0.364,0-0.675,0-0.958  l26.603-10.463c0,0-4.701-40.274-4.754-40.733c-0.055-0.459-0.274-1.18-1.36-1.089c-1.088,0.09-51.53,4.285-51.53,4.285L2.276,5.418  C0.441,5.768,0.542,6.521,1.005,10.588z M14.81,55.082l46.241-16.539l-0.014-0.107c-0.013-0.106-3.573-30.162-4.241-35.801  l0.372-0.037l4.235,36.271l-46.521,16.84L14.81,55.082z M9.234,7.316L56.53,2.661l4.055,34.23c0.096,0.825,0.146,1.25,0.187,1.467  l-45.993,16.45L9.234,7.316z M6.373,6.083C6.357,5.935,6.463,5.802,6.61,5.785c0.154-0.018,0.281,0.09,0.297,0.237l5.948,53.343  c0.017,0.148-0.09,0.279-0.238,0.297c-0.01,0.001-0.02,0.001-0.03,0.001c-0.135,0-0.251-0.101-0.267-0.237L6.373,6.083z   M2.358,6.544C2.359,6.543,2.36,6.543,2.361,6.543l1.185-0.224c0.467-0.087,1.246,0.258,1.309,0.8  c0.575,4.892,2.356,20.055,2.639,22.342c0.471,3.829-1.61,4.771-2.754,0.473c-0.764-2.873-2.452-15.348-3.16-20.712  C1.448,8.221,1.356,6.734,2.358,6.544z"/><text x="0" y="99.15" fill="#000000" font-size="5px" font-weight="bold" font-family="'Helvetica Neue', Helvetica, Arial-Unicode, Arial, Sans-serif">Created by Aline Rocheteau</text><text x="0" y="104.15" fill="#000000" font-size="5px" font-weight="bold" font-family="'Helvetica Neue', Helvetica, Arial-Unicode, Arial, Sans-serif">from the Noun Project</text></svg>